<?xml version="1.0" standalone="no"?>
<!DOCTYPE svg PUBLIC "-//W3C//DTD SVG 20010904//EN"
 "http://www.w3.org/TR/2001/REC-SVG-20010904/DTD/svg10.dtd">
<svg version="1.0" xmlns="http://www.w3.org/2000/svg"
 width="200.000000pt" height="200.000000pt" viewBox="0 0 200.000000 200.000000"
 preserveAspectRatio="xMidYMid meet">

<g transform="translate(0.000000,200.000000) scale(0.100000,-0.100000)"
fill="#ffffff" stroke="none">
<path d="M895 1982 c-138 -66 -154 -255 -29 -331 30 -18 43 -33 44 -48 0 -19
-5 -23 -34 -23 -19 0 -74 -12 -122 -26 -261 -75 -460 -272 -544 -539 -31 -100
-38 -264 -16 -375 51 -250 208 -450 438 -560 195 -93 395 -104 601 -34 112 38
202 97 303 198 76 77 99 107 138 186 63 130 86 225 86 365 0 167 -44 315 -131
441 l-31 46 48 49 48 49 21 -20 c27 -25 67 -26 88 -2 34 37 22 63 -76 160 -97
96 -127 111 -161 76 -20 -20 -21 -68 -1 -84 23 -19 19 -30 -27 -77 l-41 -42
-63 45 c-105 75 -281 144 -367 144 -42 0 -35 39 13 72 107 74 107 239 -1 313
-51 36 -130 43 -184 17z m136 -111 c60 -60 24 -151 -60 -151 -32 0 -44 6 -65
31 -35 41 -34 83 3 120 20 20 39 29 61 29 22 0 41 -9 61 -29z m-101 -556 c0
-92 1 -96 25 -107 44 -20 55 1 55 110 l0 95 55 -7 c76 -9 178 -49 252 -98 l62
-42 -64 -67 c-64 -66 -76 -94 -53 -117 22 -22 42 -12 109 54 l66 65 27 -32
c40 -47 94 -160 111 -231 24 -102 26 -98 -62 -98 -101 0 -122 -6 -130 -38 -10
-40 17 -52 119 -52 101 0 97 5 72 -100 -16 -71 -71 -188 -109 -235 l-24 -29
-70 67 c-38 37 -72 67 -76 67 -3 0 -15 -5 -26 -10 -35 -19 -22 -51 46 -120
l66 -66 -45 -32 c-25 -18 -74 -46 -109 -63 -76 -35 -206 -63 -213 -45 -2 6 -5
51 -6 101 l-3 90 -29 3 c-16 2 -32 -2 -37 -10 -5 -7 -9 -54 -9 -104 l0 -91
-56 9 c-104 16 -245 79 -292 131 -15 17 -12 22 46 80 65 66 77 98 43 117 -11
5 -23 10 -26 10 -4 0 -37 -29 -75 -65 l-67 -66 -27 32 c-53 63 -102 182 -121
292 l-6 37 94 0 c99 0 117 7 117 47 0 33 -29 43 -124 43 -47 0 -86 3 -86 8 0
4 7 37 14 73 17 78 61 177 106 238 l32 44 67 -67 c67 -66 87 -76 109 -54 24
24 11 53 -50 116 l-63 63 30 25 c69 57 227 122 303 123 l32 1 0 -95z"/>
<path d="M1073 1080 c-93 -179 -117 -219 -138 -224 -36 -9 -58 -48 -53 -93 3
-22 -1 -50 -9 -66 -17 -33 -16 -34 37 -58 l41 -18 12 27 c6 15 28 43 49 63 39
37 46 61 28 101 -9 19 3 63 70 252 44 126 79 230 78 231 -2 2 -54 -95 -115
-215z"/>
</g>
</svg>
